<svg width="22" height="28" viewBox="0 0 22 28" fill="none" xmlns="http://www.w3.org/2000/svg">
<path d="M15 14C11.134 14 8 17.134 8 21C8 24.866 11.134 28 15 28C18.866 28 22 24.866 22 21C22 17.134 18.866 14 15 14ZM15.4615 21.4623L10.3223 21.4537L10.3239 20.5306L14.5385 20.5377V16.3231H15.4616V21.4623H15.4615Z" fill="#8F8F8F" fill-opacity="0.5"/>
<g clip-path="url(#clip0)">
<path d="M19.6541 16.4063C19.857 16.3637 20 16.1879 20 15.9849C20 8.97619 11.68 7.48322 9.74731 7.231V4.01508C9.74731 3.8566 9.66034 3.71165 9.52022 3.63531C9.37817 3.56187 9.21003 3.5725 9.07958 3.6585L0.187468 9.64392C0.0705414 9.72315 0 9.85458 0 10.0005C0 10.1425 0.0705414 10.2749 0.187468 10.3542L9.07475 16.3386C9.20713 16.4256 9.3772 16.4352 9.51636 16.3608C9.65744 16.2855 9.74441 16.1395 9.74441 15.9801V12.5207C11.1427 12.5294 12.3003 12.5912 13.2638 12.7072C17.8876 13.2551 19.1235 16.0313 19.1738 16.1502C19.2424 16.3096 19.3989 16.4121 19.57 16.4121C19.599 16.414 19.628 16.4121 19.6541 16.4063Z" fill="#8F8F8F" fill-opacity="0.5"/>
</g>
<defs>
<clipPath id="clip0">
<rect width="20" height="20" fill="white" transform="matrix(-1 0 0 1 20 0)"/>
</clipPath>
</defs>
</svg>
