<svg width="22" height="28" viewBox="0 0 22 28" fill="none" xmlns="http://www.w3.org/2000/svg">
<path d="M7 14C3.134 14 0 17.134 0 21C0 24.866 3.134 28 7 28C10.866 28 14 24.866 14 21C14 17.134 10.866 14 7 14ZM7.46154 21.4623L2.32231 21.4537L2.32388 20.5306L6.53849 20.5377V16.3231H7.46157V21.4623H7.46154Z" fill="#8F8F8F" fill-opacity="0.5"/>
<g clip-path="url(#clip0)">
<path d="M2.34594 16.4063C2.14302 16.3637 2 16.1879 2 15.9849C2 8.97619 10.32 7.48322 12.2527 7.231V4.01508C12.2527 3.8566 12.3397 3.71165 12.4798 3.63531C12.6218 3.56187 12.79 3.5725 12.9204 3.6585L21.8125 9.64392C21.9295 9.72315 22 9.85458 22 10.0005C22 10.1425 21.9295 10.2749 21.8125 10.3542L12.9253 16.3386C12.7929 16.4256 12.6228 16.4352 12.4836 16.3608C12.3426 16.2855 12.2556 16.1395 12.2556 15.9801V12.5207C10.8573 12.5294 9.69967 12.5912 8.73624 12.7072C4.11238 13.2551 2.87646 16.0313 2.82621 16.1502C2.7576 16.3096 2.60105 16.4121 2.43001 16.4121C2.40102 16.414 2.37203 16.4121 2.34594 16.4063Z" fill="#8F8F8F" fill-opacity="0.5"/>
</g>
<defs>
<clipPath id="clip0">
<rect width="20" height="20" fill="white" transform="translate(2)"/>
</clipPath>
</defs>
</svg>
