<?xml version="1.0"?>
<svg xmlns="http://www.w3.org/2000/svg" xmlns:xlink="http://www.w3.org/1999/xlink" version="1.1" id="Capa_1" x="0px" y="0px" viewBox="0 0 30.051 30.051" style="enable-background:new 0 0 30.051 30.051;" xml:space="preserve" width="512px" height="512px"><g><g>
	<path d="M15.024,30.051c8.301,0,15.026-6.724,15.026-15.023S23.325,0,15.024,0C6.727,0,0.002,6.729,0.002,15.027   C0.002,23.327,6.727,30.051,15.024,30.051z M15.024,2.511c6.916,0,12.517,5.606,12.517,12.517c0,6.913-5.601,12.515-12.517,12.515   c-6.91,0-12.515-5.602-12.515-12.515C2.51,8.117,8.115,2.511,15.024,2.511z" data-original="#000000" class="active-path" data-old_color="#000000" fill="#848484"/>
	<path d="M22.058,15.109l-5.422,4.486c0,0-0.643,0.679-0.643-0.056c0-0.743,0-2.53,0-2.53s-0.436,0-1.102,0c-1.91,0-5.379,0-6.792,0   c0,0-0.382,0.1-0.382-0.483c0-0.582,0-3.143,0-3.554c0-0.419,0.317-0.411,0.317-0.411c1.376,0,4.963,0,6.81,0   c0.597,0,1.154,0,1.154,0s0-1.435,0-2.337c0-0.896,0.641-0.119,0.641-0.119s4.934,3.719,5.467,4.252   C22.492,14.741,22.058,15.109,22.058,15.109z" data-original="#000000" class="active-path" data-old_color="#000000" fill="#848484"/>
	<g>
	</g>
	<g>
	</g>
	<g>
	</g>
	<g>
	</g>
	<g>
	</g>
	<g>
	</g>
	<g>
	</g>
	<g>
	</g>
	<g>
	</g>
	<g>
	</g>
	<g>
	</g>
	<g>
	</g>
	<g>
	</g>
	<g>
	</g>
	<g>
	</g>
</g></g> </svg>
